<mxfile host="Electron" modified="2024-01-07T19:01:34.391Z" agent="Mozilla/5.0 (Windows NT 10.0; Win64; x64) AppleWebKit/537.36 (KHTML, like Gecko) draw.io/22.1.16 Chrome/120.0.6099.109 Electron/28.1.0 Safari/537.36" etag="8i041QaTYZ7O5aBgaVds" version="22.1.16" type="device">
  <diagram name="PÃ¡gina-1" id="5BSTz9O9YKwhlVoyjzCm">
    <mxGraphModel dx="628" dy="367" grid="1" gridSize="10" guides="1" tooltips="1" connect="1" arrows="1" fold="1" page="1" pageScale="1" pageWidth="1169" pageHeight="827" math="0" shadow="0">
      <root>
        <mxCell id="0" />
        <mxCell id="1" parent="0" />
        <mxCell id="8BaX_PmstEO3U_bqRlHM-3" value="AWS Cloud" style="sketch=0;outlineConnect=0;gradientColor=none;html=1;whiteSpace=wrap;fontSize=12;fontStyle=0;shape=mxgraph.aws4.group;grIcon=mxgraph.aws4.group_aws_cloud;strokeColor=#AAB7B8;fillColor=none;verticalAlign=top;align=left;spacingLeft=30;fontColor=#AAB7B8;dashed=0;" vertex="1" parent="1">
          <mxGeometry x="227" y="10" width="1003" height="550" as="geometry" />
        </mxCell>
        <mxCell id="8BaX_PmstEO3U_bqRlHM-5" style="edgeStyle=orthogonalEdgeStyle;rounded=0;orthogonalLoop=1;jettySize=auto;html=1;strokeColor=#232F3E;" edge="1" parent="1" source="8BaX_PmstEO3U_bqRlHM-4" target="8BaX_PmstEO3U_bqRlHM-9">
          <mxGeometry relative="1" as="geometry">
            <mxPoint x="287" y="155" as="targetPoint" />
          </mxGeometry>
        </mxCell>
        <mxCell id="8BaX_PmstEO3U_bqRlHM-4" value="" style="shape=image;verticalLabelPosition=bottom;labelBackgroundColor=default;verticalAlign=top;aspect=fixed;imageAspect=0;image=https://res.cloudinary.com/practicaldev/image/fetch/s--rpuQFnDS--/c_fill,f_auto,fl_progressive,h_320,q_auto,w_320/https://dev-to-uploads.s3.amazonaws.com/uploads/organization/profile_image/3915/2fd3fc80-a90d-4728-95fc-61806aba1cf3.png;" vertex="1" parent="1">
          <mxGeometry x="16" y="95" width="120" height="120" as="geometry" />
        </mxCell>
        <mxCell id="8BaX_PmstEO3U_bqRlHM-7" style="edgeStyle=orthogonalEdgeStyle;rounded=0;orthogonalLoop=1;jettySize=auto;html=1;strokeColor=#232F3E;" edge="1" parent="1" source="8BaX_PmstEO3U_bqRlHM-6" target="8BaX_PmstEO3U_bqRlHM-9">
          <mxGeometry relative="1" as="geometry">
            <mxPoint x="287" y="155" as="targetPoint" />
            <Array as="points">
              <mxPoint x="197" y="303" />
              <mxPoint x="197" y="155" />
            </Array>
          </mxGeometry>
        </mxCell>
        <mxCell id="8BaX_PmstEO3U_bqRlHM-6" value="" style="shape=image;verticalLabelPosition=bottom;labelBackgroundColor=default;verticalAlign=top;aspect=fixed;imageAspect=0;image=data:image/png,iVBORw0KGgoAAAANSUhEUgAAAOEAAADhCAMAAAAJbSJIAAAAvVBMVEUAAAD////tLjXz8/PxLzTh4eG1JSsAAgDExMQdHR29vb3iLTNwcHD6+vphYWEcBgmdISVFRUXp6en09PQmJiZXV1eioqJ5eXlsbGzKysrt7e2qqqqUlJS0tLSDg4MzMzNOTk4MDAw6OjqKiorY2NgYGBgjIyOcnJxkZGQuLi48DhHS0tKSkpKIiIg+Pj5JSUmpIijaLTTJKjBYFhqJHiFkFxx7GSKVHiYUBQhIEBRhFh0fBwhxGh8pCg41DQ4vSi0GAAAH9UlEQVR4nO2c64KaRhSAR4WtsmIjKAqCiuItru4mTdO0Tfv+j9U5ZxgursYIgmjP92MNiJP5nJkzFxkYIwiCIAiCIAiCIAiCIAiCIAiCIAiCIAiCIAiCIAiCIAiCIAiCIAiCIAiCIAiCIAiCIK7KLz/BLfPXGQWNi9C1xKc/vn16/lk+f/jtBn6uWbuYZvzxN0Wp/zSKojx/Kdlv2LjcL2n4dIFfKPn8e5mCVha/hOGXSwVR8kN5gl42wcjwWwY/UHwrS3CUUTAy/JqlCEssxWFWwcjwLaNhXSmnLWYKMinDi+NMxHMZ/eMqs+AVDJU/ihf0sxfhFQzrz98KN8zeCq9iqHwv3FC7sWHxPUZwY8PPRQvmaYbXMKw/F23YyiF4FcP6r2SYk4X+6IbMeHhD++EN5w9vOHt4wzzV9E4Mpw9vmHkN434Ms3cYd2M4yTo2vRtDNnEe3ZCx5sMbsrb66IaM9bWLm6N9D4YLL2I0ap6NqnrgzQeDccj6HgwzzA/t9mEiuQyLXmzLNAM2DhwfcRVDSyVS6ZWorKsY6uJKhoUvemdep1GvY1j/s7KGyYqa43eLwitpnrW2wTUM/6qyoePnNlSeChfMtV46z2uoPJcwZMtjGOQ1rJdxW02uNe9JLkOlFMF8hjLWZDJUPn0sQzCfoZfdUKmX8Pt2fkPZJZ4xVN7z6cvfJQkW/9uTUn/6cMCX7/+UpZfX8FwZKuBXTms7TaHtUFGeCh92niWX4S5M5Kghb21P/97UTZDLcBYmcsyQ+926fgryGBoykXeGSiXqpyCP4UomcmhYmfIDchiaS5lI2rAi7U+Sw9CNEokNK9E/pMluGMSJJAyr0/4kmQ3NxFJUaFiV/iFNVkNnlkhEGFYqvsRkNAw2yUS4YZX6hzTZDFfpRJ6UipYfkMHQtBYHiTxVsf1JWoZ6CYHmdt4n8rWq5UcQBEEQxP+Pm+4jLxzfDRxHbY5bt85IUczkvVD65PzFd0l0115w/tq7pI1zouZWr01vnZWCgC2IZo+xyer8tfcJ3D7rJE8sdivrZRoddl7me9bq9Xo+Y/xvD84t8dDnf5f8gh2u2kzm7s4Pr4B3WswfjDuJZNyxmDvP5u7Yj5IqAdxGqo6jm0fCm/cDEXbWeIu0B9syBsyHcARnoem+slf44IbHqbZMpubCXaobrPlN3I/T6GMyA3zuBn6RYofHDv6UZNgO44wtvu8tNktQgUXtQWL9op027LIuZNrAd5KbUfUNbi+WzxLZs2jHuMMSca08w/gu7xETG6GC7hLM4B5gPN/QTxuG7wiFRtKQp4Plb/EaioeqY8onODTKNWSu3IU4ELsvoLlAllsi4wPfX502NDqb6Z5BgRldf68mDDuiQtjixeky1vcX4Kbu/a5RqiFvbRpKGmGhRUUTiDIQjee4IVRCtoF/QcOd6JEh9K6iKixN4cvEJiQdVltnJRvyAApfakNkVbLDR0pg1l5OGRpxxvFfRmQINzK00XAitUR9FR/RSzQUd/5AA2n4C8hMty/YYJ3FblL7sSE41CAytczI0I4MN2AzxQv7tfB3uVaJZTipGUNez6C4eKwzw/+4NdlMFiim83g/FpUWv3hepjMdq2dsiJUblOzaEUP8Qrb8sMd6eli62xINMZSK0G6JCBNMJ2ORgT6eNpywWWJWdc3Db8NPGooQKbqM94aYWkOzG2G3qYd9SzmCk7jdYYccd2xjln6qRDu1qZZ3LQnDRWKvxntD2SFxw15yk1U5hmwnN8sEOIpqye5R/MgrCkcTsTTxSCm4mea1Fo/3JuKbGUFlEGMaqJaD8DVMxoQLRZe/KtEQHtVmb+3RVB7uLc3W3Gg6PLZWXSYN2cL1mra3wiHdgkejaSIVbdRlU36ODzr5X97/Ra98JOt63kr86jjkF+4ZhLLi1c7SH67XmA+oWzkzNL1Cfq4PVi532tmKRpSHcc3eXydT1yXxKL7d+at/wFSXw5qKsYliJA8886E4aZhmLbFqNdRNHQJP2+qeTkfnA4lis3oZy46gv2DjwDEbqsezt+ahEuewULCJH4IhcGqiJ309leCrqp987yasZcmZ2z2fsOPtTxMuFqBY46ihLjrJU2xOv3ULOoluWYZQJ7or+LihWkveKFV1koZhDF1uoxI6brg3zOa7hCoLGq7XA4wzQ3lSvnvckDGf3Q+dcEw1qx2reqFhN2xakWHMPlo9n81YJZGGOCtaMcsxHJhFuvzVFYYznCehfGg44m/iwE5sfYdx+wLX7UZt/s4PYtBNkIa43vKCC4yQYxh3W8IwXNqREwhNTEPgawhXI7nSMpxHmO8L+eag4WolVm+mxwwl1qGhnGB54Sw3PqwUyViqsqOG1nQM/mbrwBBOGp3leiemz+qw36y4odM7agij1K6ItCnDgWzB4mqcIDerauhw1BV0AUcM8bIAz6cMX2rR4yS0WjjI6VTVcMERh6cMVZR6Z7gVn9KkWLuqhvGhF5aGFhtCbMQFpn7aEEe0YpDtwj+hYzSqb4iLKi8dfJmHkUYd2WEcSkca6CF0qz2yxBqXrnlOZSNNfLhPhFY/3VusDw3ltGSUfo521QzXaUNsXQJojtAh2PEh/lgoIib0+INYKVyLtGvV6/H3I07yRNdzdF03RjjetODNsao7Hh6+8kOuNuAvUzheWKreaOKka22b5rbfFRcQBEEQBEEQBEEQBEEQBEEQBEEQBEEQBEEQRMn8B3mSoHwTqH6mAAAAAElFTkSuQmCC;" vertex="1" parent="1">
          <mxGeometry x="30" y="245" width="101" height="101" as="geometry" />
        </mxCell>
        <mxCell id="8BaX_PmstEO3U_bqRlHM-14" style="edgeStyle=orthogonalEdgeStyle;rounded=0;orthogonalLoop=1;jettySize=auto;html=1;" edge="1" parent="1" source="8BaX_PmstEO3U_bqRlHM-9" target="8BaX_PmstEO3U_bqRlHM-12">
          <mxGeometry relative="1" as="geometry" />
        </mxCell>
        <mxCell id="8BaX_PmstEO3U_bqRlHM-9" value="Amazon S3" style="sketch=0;outlineConnect=0;fontColor=#232F3E;gradientColor=none;strokeColor=#ffffff;fillColor=#232F3E;dashed=0;verticalLabelPosition=middle;verticalAlign=bottom;align=center;html=1;whiteSpace=wrap;fontSize=10;fontStyle=1;spacing=3;shape=mxgraph.aws4.productIcon;prIcon=mxgraph.aws4.s3;" vertex="1" parent="1">
          <mxGeometry x="261" y="105" width="80" height="100" as="geometry" />
        </mxCell>
        <mxCell id="8BaX_PmstEO3U_bqRlHM-13" style="edgeStyle=orthogonalEdgeStyle;rounded=0;orthogonalLoop=1;jettySize=auto;html=1;" edge="1" parent="1" source="8BaX_PmstEO3U_bqRlHM-10" target="8BaX_PmstEO3U_bqRlHM-12">
          <mxGeometry relative="1" as="geometry">
            <Array as="points">
              <mxPoint x="367" y="250" />
              <mxPoint x="490" y="250" />
            </Array>
          </mxGeometry>
        </mxCell>
        <mxCell id="8BaX_PmstEO3U_bqRlHM-15" style="edgeStyle=orthogonalEdgeStyle;rounded=0;orthogonalLoop=1;jettySize=auto;html=1;" edge="1" parent="1" source="8BaX_PmstEO3U_bqRlHM-10" target="8BaX_PmstEO3U_bqRlHM-9">
          <mxGeometry relative="1" as="geometry" />
        </mxCell>
        <mxCell id="8BaX_PmstEO3U_bqRlHM-10" value="AWS Lambda" style="sketch=0;outlineConnect=0;fontColor=#232F3E;gradientColor=none;strokeColor=#ffffff;fillColor=#232F3E;dashed=0;verticalLabelPosition=middle;verticalAlign=bottom;align=center;html=1;whiteSpace=wrap;fontSize=10;fontStyle=1;spacing=3;shape=mxgraph.aws4.productIcon;prIcon=mxgraph.aws4.lambda;" vertex="1" parent="1">
          <mxGeometry x="261" y="275" width="80" height="100" as="geometry" />
        </mxCell>
        <mxCell id="8BaX_PmstEO3U_bqRlHM-17" style="edgeStyle=orthogonalEdgeStyle;rounded=0;orthogonalLoop=1;jettySize=auto;html=1;" edge="1" parent="1" source="8BaX_PmstEO3U_bqRlHM-12" target="8BaX_PmstEO3U_bqRlHM-16">
          <mxGeometry relative="1" as="geometry" />
        </mxCell>
        <mxCell id="8BaX_PmstEO3U_bqRlHM-12" value="Amazon EMR" style="sketch=0;outlineConnect=0;fontColor=#232F3E;gradientColor=none;strokeColor=#ffffff;fillColor=#232F3E;dashed=0;verticalLabelPosition=middle;verticalAlign=bottom;align=center;html=1;whiteSpace=wrap;fontSize=10;fontStyle=1;spacing=3;shape=mxgraph.aws4.productIcon;prIcon=mxgraph.aws4.emr;" vertex="1" parent="1">
          <mxGeometry x="385" y="105" width="80" height="100" as="geometry" />
        </mxCell>
        <mxCell id="8BaX_PmstEO3U_bqRlHM-24" style="edgeStyle=orthogonalEdgeStyle;rounded=0;orthogonalLoop=1;jettySize=auto;html=1;" edge="1" parent="1" source="8BaX_PmstEO3U_bqRlHM-16" target="8BaX_PmstEO3U_bqRlHM-23">
          <mxGeometry relative="1" as="geometry" />
        </mxCell>
        <mxCell id="8BaX_PmstEO3U_bqRlHM-16" value="Amazon S3" style="sketch=0;outlineConnect=0;fontColor=#232F3E;gradientColor=none;strokeColor=#ffffff;fillColor=#232F3E;dashed=0;verticalLabelPosition=middle;verticalAlign=bottom;align=center;html=1;whiteSpace=wrap;fontSize=10;fontStyle=1;spacing=3;shape=mxgraph.aws4.productIcon;prIcon=mxgraph.aws4.s3;" vertex="1" parent="1">
          <mxGeometry x="514" y="105" width="80" height="100" as="geometry" />
        </mxCell>
        <mxCell id="8BaX_PmstEO3U_bqRlHM-44" style="edgeStyle=orthogonalEdgeStyle;rounded=0;orthogonalLoop=1;jettySize=auto;html=1;" edge="1" parent="1" source="8BaX_PmstEO3U_bqRlHM-18" target="8BaX_PmstEO3U_bqRlHM-43">
          <mxGeometry relative="1" as="geometry" />
        </mxCell>
        <mxCell id="8BaX_PmstEO3U_bqRlHM-18" value="Amazon S3" style="sketch=0;outlineConnect=0;fontColor=#232F3E;gradientColor=none;strokeColor=#ffffff;fillColor=#232F3E;dashed=0;verticalLabelPosition=middle;verticalAlign=bottom;align=center;html=1;whiteSpace=wrap;fontSize=10;fontStyle=1;spacing=3;shape=mxgraph.aws4.productIcon;prIcon=mxgraph.aws4.s3;" vertex="1" parent="1">
          <mxGeometry x="772" y="105" width="80" height="100" as="geometry" />
        </mxCell>
        <mxCell id="8BaX_PmstEO3U_bqRlHM-46" style="edgeStyle=orthogonalEdgeStyle;rounded=0;orthogonalLoop=1;jettySize=auto;html=1;" edge="1" parent="1" source="8BaX_PmstEO3U_bqRlHM-20" target="8BaX_PmstEO3U_bqRlHM-43">
          <mxGeometry relative="1" as="geometry" />
        </mxCell>
        <mxCell id="8BaX_PmstEO3U_bqRlHM-20" value="Amazon Athena" style="sketch=0;outlineConnect=0;fontColor=#232F3E;gradientColor=none;strokeColor=#ffffff;fillColor=#232F3E;dashed=0;verticalLabelPosition=middle;verticalAlign=bottom;align=center;html=1;whiteSpace=wrap;fontSize=10;fontStyle=1;spacing=3;shape=mxgraph.aws4.productIcon;prIcon=mxgraph.aws4.athena;" vertex="1" parent="1">
          <mxGeometry x="1012" y="105" width="80" height="100" as="geometry" />
        </mxCell>
        <mxCell id="8BaX_PmstEO3U_bqRlHM-28" style="edgeStyle=orthogonalEdgeStyle;rounded=0;orthogonalLoop=1;jettySize=auto;html=1;" edge="1" parent="1" source="8BaX_PmstEO3U_bqRlHM-23" target="8BaX_PmstEO3U_bqRlHM-18">
          <mxGeometry relative="1" as="geometry" />
        </mxCell>
        <mxCell id="8BaX_PmstEO3U_bqRlHM-23" value="Amazon EMR" style="sketch=0;outlineConnect=0;fontColor=#232F3E;gradientColor=none;strokeColor=#ffffff;fillColor=#232F3E;dashed=0;verticalLabelPosition=middle;verticalAlign=bottom;align=center;html=1;whiteSpace=wrap;fontSize=10;fontStyle=1;spacing=3;shape=mxgraph.aws4.productIcon;prIcon=mxgraph.aws4.emr;" vertex="1" parent="1">
          <mxGeometry x="645" y="105" width="80" height="100" as="geometry" />
        </mxCell>
        <mxCell id="8BaX_PmstEO3U_bqRlHM-26" style="edgeStyle=orthogonalEdgeStyle;rounded=0;orthogonalLoop=1;jettySize=auto;html=1;" edge="1" parent="1" source="8BaX_PmstEO3U_bqRlHM-25" target="8BaX_PmstEO3U_bqRlHM-16">
          <mxGeometry relative="1" as="geometry" />
        </mxCell>
        <mxCell id="8BaX_PmstEO3U_bqRlHM-27" style="edgeStyle=orthogonalEdgeStyle;rounded=0;orthogonalLoop=1;jettySize=auto;html=1;" edge="1" parent="1" source="8BaX_PmstEO3U_bqRlHM-25" target="8BaX_PmstEO3U_bqRlHM-23">
          <mxGeometry relative="1" as="geometry">
            <Array as="points">
              <mxPoint x="620" y="250" />
              <mxPoint x="751" y="250" />
            </Array>
          </mxGeometry>
        </mxCell>
        <mxCell id="8BaX_PmstEO3U_bqRlHM-25" value="AWS Lambda" style="sketch=0;outlineConnect=0;fontColor=#232F3E;gradientColor=none;strokeColor=#ffffff;fillColor=#232F3E;dashed=0;verticalLabelPosition=middle;verticalAlign=bottom;align=center;html=1;whiteSpace=wrap;fontSize=10;fontStyle=1;spacing=3;shape=mxgraph.aws4.productIcon;prIcon=mxgraph.aws4.lambda;" vertex="1" parent="1">
          <mxGeometry x="514" y="275" width="80" height="100" as="geometry" />
        </mxCell>
        <mxCell id="8BaX_PmstEO3U_bqRlHM-32" style="edgeStyle=orthogonalEdgeStyle;rounded=0;orthogonalLoop=1;jettySize=auto;html=1;" edge="1" parent="1" source="8BaX_PmstEO3U_bqRlHM-29" target="8BaX_PmstEO3U_bqRlHM-20">
          <mxGeometry relative="1" as="geometry" />
        </mxCell>
        <mxCell id="8BaX_PmstEO3U_bqRlHM-29" value="" style="shape=image;verticalLabelPosition=bottom;labelBackgroundColor=default;verticalAlign=top;imageAspect=0;image=https://static-00.iconduck.com/assets.00/power-bi-icon-1536x2048-0xah5g2o.png;" vertex="1" parent="1">
          <mxGeometry x="1137" y="105" width="80" height="100" as="geometry" />
        </mxCell>
        <mxCell id="8BaX_PmstEO3U_bqRlHM-33" value="AWS Step Functions" style="sketch=0;outlineConnect=0;fontColor=#232F3E;gradientColor=none;strokeColor=#ffffff;fillColor=#232F3E;dashed=0;verticalLabelPosition=middle;verticalAlign=bottom;align=center;html=1;whiteSpace=wrap;fontSize=10;fontStyle=1;spacing=3;shape=mxgraph.aws4.productIcon;prIcon=mxgraph.aws4.step_functions;" vertex="1" parent="1">
          <mxGeometry x="262" y="433" width="80" height="110" as="geometry" />
        </mxCell>
        <mxCell id="8BaX_PmstEO3U_bqRlHM-34" value="" style="outlineConnect=0;dashed=0;verticalLabelPosition=bottom;verticalAlign=top;align=center;html=1;shape=mxgraph.aws3.iam;fillColor=#759C3E;gradientColor=none;" vertex="1" parent="1">
          <mxGeometry x="394" y="440" width="42" height="81" as="geometry" />
        </mxCell>
        <mxCell id="8BaX_PmstEO3U_bqRlHM-37" value="" style="endArrow=none;html=1;rounded=0;strokeColor=#AAB7B8;" edge="1" parent="1">
          <mxGeometry width="50" height="50" relative="1" as="geometry">
            <mxPoint x="227" y="420" as="sourcePoint" />
            <mxPoint x="1227" y="420" as="targetPoint" />
          </mxGeometry>
        </mxCell>
        <mxCell id="8BaX_PmstEO3U_bqRlHM-43" value="Amazon S3" style="sketch=0;outlineConnect=0;fontColor=#232F3E;gradientColor=none;strokeColor=#ffffff;fillColor=#232F3E;dashed=0;verticalLabelPosition=middle;verticalAlign=bottom;align=center;html=1;whiteSpace=wrap;fontSize=10;fontStyle=1;spacing=3;shape=mxgraph.aws4.productIcon;prIcon=mxgraph.aws4.s3;" vertex="1" parent="1">
          <mxGeometry x="891" y="105" width="80" height="100" as="geometry" />
        </mxCell>
        <mxCell id="8BaX_PmstEO3U_bqRlHM-49" value="" style="shape=image;verticalLabelPosition=bottom;labelBackgroundColor=default;verticalAlign=top;aspect=fixed;imageAspect=0;image=https://upload.wikimedia.org/wikipedia/commons/a/aa/Team_icon.png;" vertex="1" parent="1">
          <mxGeometry x="1116.75" y="256.25" width="113.25" height="113.25" as="geometry" />
        </mxCell>
        <mxCell id="8BaX_PmstEO3U_bqRlHM-56" value="" style="endArrow=classic;html=1;rounded=0;" edge="1" parent="1">
          <mxGeometry width="50" height="50" relative="1" as="geometry">
            <mxPoint x="1176.41" y="285" as="sourcePoint" />
            <mxPoint x="1176.41" y="215" as="targetPoint" />
          </mxGeometry>
        </mxCell>
        <mxCell id="8BaX_PmstEO3U_bqRlHM-60" style="edgeStyle=orthogonalEdgeStyle;rounded=0;orthogonalLoop=1;jettySize=auto;html=1;strokeColor=#8C4FFF;" edge="1" parent="1" source="8BaX_PmstEO3U_bqRlHM-57" target="8BaX_PmstEO3U_bqRlHM-9">
          <mxGeometry relative="1" as="geometry" />
        </mxCell>
        <mxCell id="8BaX_PmstEO3U_bqRlHM-61" style="edgeStyle=orthogonalEdgeStyle;rounded=0;orthogonalLoop=1;jettySize=auto;html=1;strokeColor=#8C4FFF;" edge="1" parent="1" source="8BaX_PmstEO3U_bqRlHM-57" target="8BaX_PmstEO3U_bqRlHM-16">
          <mxGeometry relative="1" as="geometry" />
        </mxCell>
        <mxCell id="8BaX_PmstEO3U_bqRlHM-62" style="edgeStyle=orthogonalEdgeStyle;rounded=0;orthogonalLoop=1;jettySize=auto;html=1;strokeColor=#8C4FFF;" edge="1" parent="1" source="8BaX_PmstEO3U_bqRlHM-57" target="8BaX_PmstEO3U_bqRlHM-18">
          <mxGeometry relative="1" as="geometry">
            <Array as="points">
              <mxPoint x="812" y="56" />
            </Array>
          </mxGeometry>
        </mxCell>
        <mxCell id="8BaX_PmstEO3U_bqRlHM-63" style="edgeStyle=orthogonalEdgeStyle;rounded=0;orthogonalLoop=1;jettySize=auto;html=1;strokeColor=#8C4FFF;" edge="1" parent="1" source="8BaX_PmstEO3U_bqRlHM-57" target="8BaX_PmstEO3U_bqRlHM-43">
          <mxGeometry relative="1" as="geometry" />
        </mxCell>
        <mxCell id="8BaX_PmstEO3U_bqRlHM-57" value="" style="sketch=0;outlineConnect=0;fontColor=#232F3E;gradientColor=none;fillColor=#8C4FFF;strokeColor=none;dashed=0;verticalLabelPosition=bottom;verticalAlign=top;align=center;html=1;fontSize=12;fontStyle=0;aspect=fixed;pointerEvents=1;shape=mxgraph.aws4.glue_crawlers;" vertex="1" parent="1">
          <mxGeometry x="631" y="22" width="68" height="68" as="geometry" />
        </mxCell>
      </root>
    </mxGraphModel>
  </diagram>
</mxfile>
